<svg width="117" height="24" viewBox="0 0 117 24" fill="none" xmlns="http://www.w3.org/2000/svg">
<path d="M7.95304 21.1394C4.89547 21.1304 2.25432 19.458 0.98691 16.2895C-0.280503 13.121 0.108539 9.16314 1.74325 5.61505C4.80082 5.62409 7.44197 7.29648 8.70938 10.465C9.97679 13.6335 9.58775 17.5914 7.95304 21.1394Z" fill="white"/>
<path d="M7.95304 21.1394C4.89547 21.1304 2.25432 19.458 0.98691 16.2895C-0.280503 13.121 0.108539 9.16314 1.74325 5.61505C4.80082 5.62409 7.44197 7.29648 8.70938 10.465C9.97679 13.6335 9.58775 17.5914 7.95304 21.1394Z" fill="url(#paint0_radial_167_7785)"/>
<path d="M7.95304 21.1394C4.89547 21.1304 2.25432 19.458 0.98691 16.2895C-0.280503 13.121 0.108539 9.16314 1.74325 5.61505C4.80082 5.62409 7.44197 7.29648 8.70938 10.465C9.97679 13.6335 9.58775 17.5914 7.95304 21.1394Z" fill="black" fill-opacity="0.5" style="mix-blend-mode:hard-light"/>
<path d="M7.95304 21.1394C4.89547 21.1304 2.25432 19.458 0.98691 16.2895C-0.280503 13.121 0.108539 9.16314 1.74325 5.61505C4.80082 5.62409 7.44197 7.29648 8.70938 10.465C9.97679 13.6335 9.58775 17.5914 7.95304 21.1394Z" fill="url(#paint1_linear_167_7785)" fill-opacity="0.5" style="mix-blend-mode:hard-light"/>
<path d="M7.93502 21.1112C4.89663 21.0957 2.27373 19.4306 1.01308 16.279C-0.24876 13.1245 0.135227 9.18218 1.76127 5.64328C4.79965 5.65883 7.42256 7.32386 8.68321 10.4755C9.94505 13.63 9.56106 17.5723 7.93502 21.1112Z" stroke="url(#paint2_linear_167_7785)" stroke-opacity="0.05" stroke-width="0.056338"/>
<path d="M7.31038 21.2574C11.3543 20.2215 14.8836 17.3754 16.6285 13.2361C18.3735 9.09671 17.9448 4.58749 15.8598 0.976291C11.8159 2.01214 8.2866 4.85826 6.54167 8.99762C4.79674 13.137 5.2254 17.6462 7.31038 21.2574Z" fill="white"/>
<path d="M7.31038 21.2574C11.3543 20.2215 14.8836 17.3754 16.6285 13.2361C18.3735 9.09671 17.9448 4.58749 15.8598 0.976291C11.8159 2.01214 8.2866 4.85826 6.54167 8.99762C4.79674 13.137 5.2254 17.6462 7.31038 21.2574Z" fill="url(#paint3_radial_167_7785)"/>
<path d="M16.6025 13.2251C14.8642 17.349 11.3512 20.1866 7.32411 21.2248C5.25257 17.624 4.82926 13.1324 6.56764 9.00855C8.30603 4.88472 11.819 2.04706 15.8461 1.00889C17.9176 4.60967 18.3409 9.10131 16.6025 13.2251Z" stroke="url(#paint4_linear_167_7785)" stroke-opacity="0.05" stroke-width="0.056338"/>
<path d="M7.23325 21.2069C9.78863 23.2373 13.2098 23.9506 16.5767 22.8141C19.9437 21.6775 22.5054 18.9445 23.7299 15.6382C21.1746 13.6078 17.7534 12.8944 14.3865 14.031C11.0195 15.1676 8.45779 17.9006 7.23325 21.2069Z" fill="white"/>
<path d="M7.23325 21.2069C9.78863 23.2373 13.2098 23.9506 16.5767 22.8141C19.9437 21.6775 22.5054 18.9445 23.7299 15.6382C21.1746 13.6078 17.7534 12.8944 14.3865 14.031C11.0195 15.1676 8.45779 17.9006 7.23325 21.2069Z" fill="url(#paint5_radial_167_7785)"/>
<path d="M7.23325 21.2069C9.78863 23.2373 13.2098 23.9506 16.5767 22.8141C19.9437 21.6775 22.5054 18.9445 23.7299 15.6382C21.1746 13.6078 17.7534 12.8944 14.3865 14.031C11.0195 15.1676 8.45779 17.9006 7.23325 21.2069Z" fill="black" fill-opacity="0.2" style="mix-blend-mode:hard-light"/>
<path d="M7.23325 21.2069C9.78863 23.2373 13.2098 23.9506 16.5767 22.8141C19.9437 21.6775 22.5054 18.9445 23.7299 15.6382C21.1746 13.6078 17.7534 12.8944 14.3865 14.031C11.0195 15.1676 8.45779 17.9006 7.23325 21.2069Z" fill="url(#paint6_linear_167_7785)" fill-opacity="0.5" style="mix-blend-mode:hard-light"/>
<path d="M16.5677 22.7874C13.2171 23.9184 9.81319 23.2124 7.26677 21.1975C8.49151 17.9068 11.044 15.189 14.3954 14.0577C17.746 12.9266 21.15 13.6326 23.6964 15.6476C22.4717 18.9383 19.9192 21.656 16.5677 22.7874Z" stroke="url(#paint7_linear_167_7785)" stroke-opacity="0.05" stroke-width="0.056338"/>
<path d="M33.2 18V4H40.8C41.72 4 42.5333 4.2 43.24 4.6C43.96 5 44.52 5.56 44.92 6.28C45.32 6.98667 45.52 7.8 45.52 8.72C45.52 9.64 45.32 10.46 44.92 11.18C44.52 11.8867 43.96 12.44 43.24 12.84C42.5333 13.24 41.72 13.44 40.8 13.44H36.32V18H33.2ZM40.48 10.66C41.08 10.66 41.54 10.4667 41.86 10.08C42.1933 9.69333 42.36 9.24 42.36 8.72C42.36 8.18667 42.1933 7.73333 41.86 7.36C41.54 6.97333 41.08 6.78 40.48 6.78H36.32V10.66H40.48ZM52.0611 18.36C50.9544 18.36 49.9678 18.1267 49.1011 17.66C48.2478 17.18 47.5811 16.5133 47.1011 15.66C46.6211 14.8067 46.3811 13.8333 46.3811 12.74C46.3811 11.6333 46.6144 10.6467 47.0811 9.78C47.5478 8.9 48.1944 8.22 49.0211 7.74C49.8478 7.26 50.7944 7.02 51.8611 7.02C52.8878 7.02 53.7944 7.25333 54.5811 7.72C55.3678 8.18667 55.9878 8.85333 56.4411 9.72C56.8944 10.5733 57.1278 11.5733 57.1411 12.72V13.4H49.4211C49.5278 14.1333 49.8211 14.72 50.3011 15.16C50.7944 15.6 51.3944 15.82 52.1011 15.82C52.5944 15.82 53.0144 15.72 53.3611 15.52C53.7211 15.3067 53.9744 15.0067 54.1211 14.62H57.1011C56.8078 15.8067 56.2144 16.7267 55.3211 17.38C54.4411 18.0333 53.3544 18.36 52.0611 18.36ZM54.0011 11.44C53.8544 10.8533 53.5944 10.4 53.2211 10.08C52.8478 9.74667 52.3944 9.58 51.8611 9.58C51.3144 9.58 50.8344 9.74667 50.4211 10.08C50.0211 10.4133 49.7278 10.8667 49.5411 11.44H54.0011ZM62.0208 18.28C60.7674 18.28 59.7674 18.0133 59.0208 17.48C58.2741 16.9467 57.9008 16.1933 57.9008 15.22C57.9008 14.06 58.3341 13.24 59.2008 12.76C60.0674 12.28 61.1741 11.9533 62.5208 11.78C63.4541 11.66 64.1074 11.5333 64.4808 11.4C64.8674 11.2533 65.0608 10.9933 65.0608 10.62C65.0608 9.84667 64.5141 9.46 63.4208 9.46C62.8074 9.46 62.3074 9.60667 61.9208 9.9C61.5474 10.1933 61.3274 10.5867 61.2608 11.08H58.1408C58.2208 10.2933 58.4941 9.59333 58.9608 8.98C59.4408 8.35333 60.0674 7.87333 60.8408 7.54C61.6141 7.19333 62.4874 7.02 63.4608 7.02C64.9674 7.02 66.1074 7.36667 66.8808 8.06C67.6674 8.74 68.0608 9.66667 68.0608 10.84V15.28C68.0608 15.56 68.2274 15.7 68.5608 15.7H69.1008V18H67.8008C67.3074 18 66.8808 17.92 66.5208 17.76C66.1608 17.5867 65.8874 17.3467 65.7008 17.04C65.6208 16.92 65.5608 16.7867 65.5208 16.64C64.8674 17.7333 63.7008 18.28 62.0208 18.28ZM62.7408 16C63.3941 16 63.9408 15.8533 64.3808 15.56C64.8341 15.2667 65.0608 14.86 65.0608 14.34V12.74C64.9141 13.02 64.6674 13.22 64.3208 13.34C63.9874 13.46 63.5208 13.5667 62.9208 13.66C62.2274 13.7667 61.7341 13.9 61.4408 14.06C61.1474 14.2067 61.0008 14.48 61.0008 14.88C61.0008 15.2533 61.1341 15.5333 61.4008 15.72C61.6808 15.9067 62.1274 16 62.7408 16ZM70.1348 18V7.4H72.6148L72.9948 9.56C73.3415 8.8 73.8215 8.22667 74.4348 7.84C75.0482 7.44 75.7882 7.24 76.6548 7.24H77.1148V10.2H76.6548C75.5748 10.2 74.7282 10.46 74.1148 10.98C73.5148 11.4867 73.2148 12.1933 73.2148 13.1V18H70.1348ZM82.5789 18.36C79.3922 18.36 77.7256 17.1 77.5789 14.58H80.5189C80.5456 15.0333 80.7122 15.3733 81.0189 15.6C81.3389 15.8133 81.7589 15.92 82.2789 15.92C82.7322 15.92 83.0856 15.84 83.3389 15.68C83.5922 15.52 83.7189 15.2933 83.7189 15C83.7189 14.7467 83.6389 14.5667 83.4789 14.46C83.3189 14.3533 83.1189 14.2667 82.8789 14.2C82.6522 14.12 82.4989 14.0667 82.4189 14.04L81.1389 13.64C80.0056 13.28 79.1456 12.86 78.5589 12.38C77.9856 11.9 77.6989 11.2067 77.6989 10.3C77.6989 9.3 78.0656 8.50667 78.7989 7.92C79.5456 7.32 80.5989 7.02 81.9589 7.02C83.2656 7.02 84.3189 7.34667 85.1189 8C85.9322 8.65333 86.4122 9.58667 86.5589 10.8H83.7189C83.6789 10.3467 83.5056 10.0133 83.1989 9.8C82.9056 9.57333 82.4989 9.46 81.9789 9.46C81.5922 9.46 81.2856 9.53333 81.0589 9.68C80.8456 9.82667 80.7389 10.0267 80.7389 10.28C80.7389 10.52 80.8456 10.7067 81.0589 10.84C81.2722 10.96 81.6056 11.1 82.0589 11.26L83.1989 11.64C84.0656 11.9333 84.7456 12.2133 85.2389 12.48C85.7322 12.7333 86.1122 13.0667 86.3789 13.48C86.6589 13.88 86.7989 14.4 86.7989 15.04C86.7989 16.0667 86.4189 16.88 85.6589 17.48C84.9122 18.0667 83.8856 18.36 82.5789 18.36ZM88.1375 18V4H93.2975C94.7108 4 95.9708 4.29333 97.0775 4.88C98.1842 5.46667 99.0442 6.28667 99.6575 7.34C100.284 8.38 100.598 9.57333 100.598 10.92C100.598 12.2933 100.284 13.52 99.6575 14.6C99.0442 15.6667 98.1842 16.5 97.0775 17.1C95.9708 17.7 94.7108 18 93.2975 18H88.1375ZM93.5175 15.22C94.2642 15.22 94.9308 15.04 95.5175 14.68C96.1175 14.32 96.5775 13.8133 96.8975 13.16C97.2308 12.5067 97.3975 11.76 97.3975 10.92C97.3975 10.12 97.2308 9.40667 96.8975 8.78C96.5775 8.15333 96.1175 7.66667 95.5175 7.32C94.9308 6.96 94.2642 6.78 93.5175 6.78H91.2575V15.22H93.5175ZM102.156 18V4H109.016C109.896 4 110.676 4.15333 111.356 4.46C112.036 4.75333 112.563 5.17333 112.936 5.72C113.323 6.26667 113.516 6.88667 113.516 7.58C113.516 8.40667 113.236 9.12 112.676 9.72C112.116 10.3067 111.383 10.68 110.476 10.84C111.49 10.9467 112.296 11.3067 112.896 11.92C113.51 12.5333 113.816 13.3 113.816 14.22C113.816 14.9533 113.616 15.6067 113.216 16.18C112.83 16.7533 112.276 17.2 111.556 17.52C110.85 17.84 110.036 18 109.116 18H102.156ZM108.976 9.56C109.416 9.56 109.776 9.43333 110.056 9.18C110.336 8.91333 110.476 8.57333 110.476 8.16C110.476 7.74667 110.343 7.41333 110.076 7.16C109.81 6.89333 109.47 6.76 109.056 6.76H105.276V9.56H108.976ZM109.176 15.24C109.643 15.24 110.003 15.0933 110.256 14.8C110.523 14.5067 110.656 14.1533 110.656 13.74C110.656 13.34 110.516 12.9867 110.236 12.68C109.956 12.3733 109.57 12.22 109.076 12.22H105.276V15.24H109.176Z" fill="#F1F6F4"/>
<defs>
<radialGradient id="paint0_radial_167_7785" cx="0" cy="0" r="1" gradientUnits="userSpaceOnUse" gradientTransform="translate(-3.00541 15.023) rotate(-10.029) scale(17.9572 17.784)">
<stop stop-color="#00B0BB"/>
<stop offset="1" stop-color="#00DB65"/>
</radialGradient>
<linearGradient id="paint1_linear_167_7785" x1="7.38997" y1="4.81308" x2="1.62936" y2="18.6894" gradientUnits="userSpaceOnUse">
<stop stop-color="#18E299"/>
<stop offset="1"/>
</linearGradient>
<linearGradient id="paint2_linear_167_7785" x1="7.94778" y1="8.01563" x2="1.76081" y2="18.746" gradientUnits="userSpaceOnUse">
<stop/>
<stop offset="1" stop-opacity="0"/>
</linearGradient>
<radialGradient id="paint3_radial_167_7785" cx="0" cy="0" r="1" gradientUnits="userSpaceOnUse" gradientTransform="translate(8.11404 20.8822) rotate(-75.7542) scale(21.6246 23.7772)">
<stop stop-color="#00BBBB"/>
<stop offset="0.712616" stop-color="#00DB65"/>
</radialGradient>
<linearGradient id="paint4_linear_167_7785" x1="7.60205" y1="5.8709" x2="15.5561" y2="16.3719" gradientUnits="userSpaceOnUse">
<stop/>
<stop offset="1" stop-opacity="0"/>
</linearGradient>
<radialGradient id="paint5_radial_167_7785" cx="0" cy="0" r="1" gradientUnits="userSpaceOnUse" gradientTransform="translate(7.84494 21.5181) rotate(-20.3525) scale(18.5603 17.32)">
<stop stop-color="#00B0BB"/>
<stop offset="1" stop-color="#00DB65"/>
</radialGradient>
<linearGradient id="paint6_linear_167_7785" x1="16.8074" y1="13.0071" x2="10.0405" y2="22.9937" gradientUnits="userSpaceOnUse">
<stop stop-color="#00B1BC"/>
<stop offset="1"/>
</linearGradient>
<linearGradient id="paint7_linear_167_7785" x1="16.8074" y1="13.0071" x2="14.1682" y2="23.841" gradientUnits="userSpaceOnUse">
<stop/>
<stop offset="1" stop-opacity="0"/>
</linearGradient>
</defs>
</svg>
